<svg xmlns="http://www.w3.org/2000/svg" viewBox="0 0 900 650" role="img" aria-label="Ilustración sobre nosotros Blue Code">
  <defs>
    <style>
      .s{stroke:#0B1220;stroke-width:8;stroke-linecap:round;stroke-linejoin:round}
      .soft{stroke:#0B1220;stroke-width:8;stroke-linecap:round;stroke-linejoin:round;opacity:.20}
    </style>
    <filter id="shadow" x="-20%" y="-20%" width="140%" height="140%">
      <feDropShadow dx="0" dy="10" stdDeviation="10" flood-color="#0B1220" flood-opacity=".14"/>
    </filter>
  </defs>

  <!-- Background accents -->
  <circle cx="160" cy="140" r="70" fill="#0098FF" opacity=".14"/>
  <circle cx="760" cy="150" r="90" fill="#0098FF" opacity=".10"/>

  <!-- Main board -->
  <rect x="70" y="70" width="760" height="510" rx="56" fill="#FFFFFF" class="s" filter="url(#shadow)"/>

  <!-- Target (strategy) -->
  <circle cx="520" cy="270" r="110" fill="#0098FF" opacity=".12"/>
  <circle cx="520" cy="270" r="74" fill="#FFFFFF" class="s"/>
  <circle cx="520" cy="270" r="40" fill="#0098FF" opacity=".20" class="s"/>
  <path d="M520 150v32M520 358v32M400 270h32M608 270h32" class="soft"/>

  <!-- Person (left) -->
  <circle cx="250" cy="240" r="52" fill="#FFFFFF" class="s"/>
  <path d="M178 420c40-66 116-66 156 0v110H178z" fill="#F3F6FA" class="s"/>
  <rect x="214" y="414" width="82" height="14" rx="7" fill="#0098FF" opacity=".92"/>

  <!-- Checklist card (right) -->
  <rect x="600" y="360" width="190" height="150" rx="26" fill="#F3F6FA" class="s"/>
  <path d="M630 406h130M630 444h130M630 482h84" class="soft"/>
  <path d="M622 406l12 12 22-26" fill="none" class="s" stroke-width="7"/>
  <rect x="730" y="392" width="40" height="40" rx="12" fill="#0098FF" opacity=".18" class="s"/>
</svg>

