<svg xmlns="http://www.w3.org/2000/svg" viewBox="0 0 900 650" role="img" aria-label="Ilustración contacto Blue Code">
  <defs>
    <style>
      .s{stroke:#0B1220;stroke-width:8;stroke-linecap:round;stroke-linejoin:round}
      .soft{stroke:#0B1220;stroke-width:8;stroke-linecap:round;stroke-linejoin:round;opacity:.20}
    </style>
    <filter id="shadow" x="-20%" y="-20%" width="140%" height="140%">
      <feDropShadow dx="0" dy="10" stdDeviation="10" flood-color="#0B1220" flood-opacity=".14"/>
    </filter>
  </defs>

  <!-- Background accents -->
  <circle cx="170" cy="170" r="84" fill="#0098FF" opacity=".14"/>
  <path d="M760 170c44 0 80 36 80 80" fill="none" class="soft"/>

  <!-- Main card -->
  <rect x="70" y="80" width="760" height="490" rx="56" fill="#F3F6FA" class="s" filter="url(#shadow)"/>

  <!-- Form panel -->
  <rect x="470" y="150" width="300" height="340" rx="28" fill="#FFFFFF" class="s"/>
  <path d="M505 220h230M505 280h230M505 340h230M505 400h170" class="soft"/>
  <rect x="560" y="430" width="190" height="52" rx="26" fill="#0098FF" class="s"/>
  <path d="M615 456h80" class="s" stroke="#FFFFFF"/>

  <!-- Person + badge -->
  <circle cx="260" cy="260" r="58" fill="#FFFFFF" class="s"/>
  <path d="M175 440c44-70 130-70 174 0v60H175z" fill="#FFFFFF" class="s"/>
  <rect x="220" y="356" width="86" height="120" rx="20" fill="#FFFFFF" class="s"/>
  <rect x="236" y="404" width="56" height="12" rx="6" fill="#0098FF" opacity=".92"/>

  <!-- Small verification card -->
  <rect x="360" y="210" width="120" height="110" rx="22" fill="#FFFFFF" class="s"/>
  <path d="M388 256l12 12 24-28" fill="none" class="s" stroke-width="7"/>
  <path d="M382 294h74" class="soft"/>
</svg>

